#Comment line ignore any data following # character 
#Hierarchical Translation and Rotation (.htr) file 
[Header]	
#Header keywords are followed by a single value 
FileType HTR		#Single word string
DataType HTRS		#Translation followed by rotation and scale data
FileVersion 1		#integer
NumSegments 64		#integer
NumFrames 3		#integer
DataFrameRate 30		#integer, data frame rate in this file
EulerRotationOrder ZYX
CalibrationUnits mm
RotationUnits Degrees
GlobalAxisofGravity Y
BoneLengthAxis Y
ScaleFactor 1.00
[SegmentNames&Hierarchy]
#CHILD	PARENT
Pinger_Root GLOBAL
Pelvis Pinger_Root
L_Hip Pelvis
R_Hip Pelvis
Rear_Leg01 Pelvis
Spine1 Pelvis
L_Leg01 L_Hip
L_Leg02 L_Leg01
L_Leg03 L_Leg02
L_Foot L_Leg03
L_Toe1_01 L_Foot
L_Toe2_01 L_Foot
L_Toe3_01 L_Foot
planeAlignerLeft L_Foot
L_Toe1_02 L_Toe1_01
L_Toe1_03 L_Toe1_02
L_Toe2_02 L_Toe2_01
L_Toe2_03 L_Toe2_02
L_Toe3_02 L_Toe3_01
L_Toe3_03 L_Toe3_02
planeLockWeightLeft planeAlignerLeft
R_Leg01 R_Hip
R_Leg02 R_Leg01
R_Leg03 R_Leg02
R_Foot R_Leg03
planeAlignerRight R_Foot
R_Toe1_01 R_Foot
R_Toe2_01 R_Foot
R_Toe3_01 R_Foot
planeLockWeightRight planeAlignerRight
R_Toe1_02 R_Toe1_01
R_Toe1_03 R_Toe1_02
R_Toe2_02 R_Toe2_01
R_Toe2_03 R_Toe2_02
R_Toe3_02 R_Toe3_01
R_Toe3_03 R_Toe3_02
Rear_Leg02 Rear_Leg01
Rear_Leg03 Rear_Leg02
Rear_Leg04 Rear_Leg03
Rear_Foot Rear_Leg04
planeAlignerCenter Rear_Foot
Rear_Toe1_01 Rear_Foot
Rear_Toe2_01 Rear_Foot
Rear_Toe3_01 Rear_Foot
planeLockWeightCenter planeAlignerCenter
Rear_Toe1_02 Rear_Toe1_01
Rear_Toe1_03 Rear_Toe1_02
Rear_Toe2_02 Rear_Toe2_01
Rear_Toe2_03 Rear_Toe2_02
Rear_Toe3_02 Rear_Toe3_01
Rear_Toe3_03 Rear_Toe3_02
Back_Bone Spine1
Head Spine1
Motor_Bone Back_Bone
Ping_Mechanism Back_Bone
BN_LookIK Head
bottomMouth Head
L_Mouth01 Head
L_mouthFront Head
mouthGun Head
R_Mouth01 Head
R_mouthFront Head
TopMouth Head
weapon_bone Head
[BasePosition]
#SegmentName Tx, Ty, Tz, Rx, Ry, Rz, BoneLength
Pinger_Root 0.000000 0.000000 0.000000 -90.000000 0.000000 0.000000 10.000000 
Pelvis 0.000000 0.000000 0.000000 0.000000 0.000000 0.000000 10.000000 
L_Hip 0.000000 0.000000 0.000000 0.000000 0.000000 0.000000 10.000000 
R_Hip 0.000000 0.000000 0.000000 0.000000 0.000000 0.000000 10.000000 
Rear_Leg01 0.000000 0.000000 0.000000 0.000000 0.000000 0.000000 10.000000 
Spine1 0.000000 0.000000 0.000000 0.000000 0.000000 0.000000 10.000000 
L_Leg01 0.000000 0.000000 0.000000 0.000000 0.000000 0.000000 10.000000 
L_Leg02 0.000000 0.000000 0.000000 0.000000 0.000000 0.000000 10.000000 
L_Leg03 0.000000 0.000000 0.000000 0.000000 0.000000 0.000000 10.000000 
L_Foot 0.000000 0.000000 0.000000 0.000000 0.000000 0.000000 10.000000 
L_Toe1_01 0.000000 0.000000 0.000000 0.000000 0.000000 0.000000 10.000000 
L_Toe2_01 0.000000 0.000000 0.000000 0.000000 0.000000 0.000000 10.000000 
L_Toe3_01 0.000000 0.000000 0.000000 0.000000 0.000000 0.000000 10.000000 
planeAlignerLeft 0.000000 0.000000 0.000000 0.000000 0.000000 0.000000 10.000000 
L_Toe1_02 0.000000 0.000000 0.000000 0.000000 0.000000 0.000000 10.000000 
L_Toe1_03 0.000000 0.000000 0.000000 0.000000 0.000000 0.000000 10.000000 
L_Toe2_02 0.000000 0.000000 0.000000 0.000000 0.000000 0.000000 10.000000 
L_Toe2_03 0.000000 0.000000 0.000000 0.000000 0.000000 0.000000 10.000000 
L_Toe3_02 0.000000 0.000000 0.000000 0.000000 0.000000 0.000000 10.000000 
L_Toe3_03 0.000000 0.000000 0.000000 0.000000 0.000000 0.000000 10.000000 
planeLockWeightLeft 0.000000 0.000000 0.000000 0.000000 0.000000 0.000000 10.000000 
R_Leg01 0.000000 0.000000 0.000000 0.000000 0.000000 0.000000 10.000000 
R_Leg02 0.000000 0.000000 0.000000 0.000000 0.000000 0.000000 10.000000 
R_Leg03 0.000000 0.000000 0.000000 0.000000 0.000000 0.000000 10.000000 
R_Foot 0.000000 0.000000 0.000000 0.000000 0.000000 0.000000 10.000000 
planeAlignerRight 0.000000 0.000000 0.000000 0.000000 0.000000 0.000000 10.000000 
R_Toe1_01 0.000000 0.000000 0.000000 0.000000 0.000000 0.000000 10.000000 
R_Toe2_01 0.000000 0.000000 0.000000 0.000000 0.000000 0.000000 10.000000 
R_Toe3_01 0.000000 0.000000 0.000000 0.000000 0.000000 0.000000 10.000000 
planeLockWeightRight 0.000000 0.000000 0.000000 0.000000 0.000000 0.000000 10.000000 
R_Toe1_02 0.000000 0.000000 0.000000 0.000000 0.000000 0.000000 10.000000 
R_Toe1_03 0.000000 0.000000 0.000000 0.000000 0.000000 0.000000 10.000000 
R_Toe2_02 0.000000 0.000000 0.000000 0.000000 0.000000 0.000000 10.000000 
R_Toe2_03 0.000000 0.000000 0.000000 0.000000 0.000000 0.000000 10.000000 
R_Toe3_02 0.000000 0.000000 0.000000 0.000000 0.000000 0.000000 10.000000 
R_Toe3_03 0.000000 0.000000 0.000000 0.000000 0.000000 0.000000 10.000000 
Rear_Leg02 0.000000 0.000000 0.000000 0.000000 0.000000 0.000000 10.000000 
Rear_Leg03 0.000000 0.000000 0.000000 0.000000 0.000000 0.000000 10.000000 
Rear_Leg04 0.000000 0.000000 0.000000 0.000000 0.000000 0.000000 10.000000 
Rear_Foot 0.000000 0.000000 0.000000 0.000000 0.000000 0.000000 10.000000 
planeAlignerCenter 0.000000 0.000000 0.000000 0.000000 0.000000 0.000000 10.000000 
Rear_Toe1_01 0.000000 0.000000 0.000000 0.000000 0.000000 0.000000 10.000000 
Rear_Toe2_01 0.000000 0.000000 0.000000 0.000000 0.000000 0.000000 10.000000 
Rear_Toe3_01 0.000000 0.000000 0.000000 0.000000 0.000000 0.000000 10.000000 
planeLockWeightCenter 0.000000 0.000000 0.000000 0.000000 0.000000 0.000000 10.000000 
Rear_Toe1_02 0.000000 0.000000 0.000000 0.000000 0.000000 0.000000 10.000000 
Rear_Toe1_03 0.000000 0.000000 0.000000 0.000000 0.000000 0.000000 10.000000 
Rear_Toe2_02 0.000000 0.000000 0.000000 0.000000 0.000000 0.000000 10.000000 
Rear_Toe2_03 0.000000 0.000000 0.000000 0.000000 0.000000 0.000000 10.000000 
Rear_Toe3_02 0.000000 0.000000 0.000000 0.000000 0.000000 0.000000 10.000000 
Rear_Toe3_03 0.000000 0.000000 0.000000 0.000000 0.000000 0.000000 10.000000 
Back_Bone 0.000000 0.000000 0.000000 0.000000 0.000000 0.000000 10.000000 
Head 0.000000 0.000000 0.000000 0.000000 0.000000 0.000000 10.000000 
Motor_Bone 0.000000 0.000000 0.000000 0.000000 0.000000 0.000000 10.000000 
Ping_Mechanism 0.000000 0.000000 0.000000 0.000000 0.000000 0.000000 10.000000 
BN_LookIK 0.000000 0.000000 0.000000 0.000000 0.000000 0.000000 10.000000 
bottomMouth 0.000000 0.000000 0.000000 0.000000 0.000000 0.000000 10.000000 
L_Mouth01 0.000000 0.000000 0.000000 0.000000 0.000000 0.000000 10.000000 
L_mouthFront 0.000000 0.000000 0.000000 0.000000 0.000000 0.000000 10.000000 
mouthGun 0.000000 0.000000 0.000000 0.000000 0.000000 0.000000 10.000000 
R_Mouth01 0.000000 0.000000 0.000000 0.000000 0.000000 0.000000 10.000000 
R_mouthFront 0.000000 0.000000 0.000000 0.000000 0.000000 0.000000 10.000000 
TopMouth 0.000000 0.000000 0.000000 0.000000 0.000000 0.000000 10.000000 
weapon_bone 0.000000 0.000000 0.000000 0.000000 0.000000 0.000000 10.000000 
#Beginning of Data. Separated by tabs
#Fr	Tx	Ty	Tz	Rx	Ry	Rz	SF
[Pinger_Root]
56 0.000000 0.000000 0.000000 -0.000075 -0.000000 -0.000020 0.000000
57 0.000000 0.000000 0.000000 -0.000075 -0.000000 -0.000020 0.000000
58 0.000000 0.000000 0.000000 -0.000075 -0.000000 -0.000020 0.000000
[Pelvis]
56 166.448441 847.540466 4454.807617 -154.698380 -86.454033 148.268906 4537.768555
57 86.126999 908.076050 4358.612305 -136.818710 -85.232147 129.646866 4453.035156
58 69.776375 913.968079 4328.960449 -132.022766 -84.666565 124.505501 4424.940918
[L_Hip]
56 5.766392 125.831482 872.656799 160.158691 -45.484905 122.312202 881.701050
57 5.766392 125.831482 872.656799 160.158691 -45.484905 122.312202 881.701050
58 5.766392 125.831482 872.656799 160.158691 -45.484905 122.312202 881.701050
[R_Hip]
56 5.765438 125.836372 -872.654907 37.717339 51.619373 124.572678 881.699829
57 5.765438 125.836372 -872.654907 38.002121 50.279121 125.418434 881.699829
58 5.765438 125.836372 -872.654907 38.087837 49.812706 125.703720 881.699829
[Rear_Leg01]
56 -192.298416 -925.602966 -0.001907 169.414764 -2.540194 -157.427734 945.367432
57 -192.298416 -925.602966 -0.001907 168.912399 -1.077267 -158.277512 945.367432
58 -192.298416 -925.602966 -0.001907 168.653137 -0.683220 -158.840988 945.367432
[Spine1]
56 290.604584 5.007505 0.000477 9.416348 2.130428 21.750809 290.647736
57 290.604584 5.007505 0.000477 8.955898 2.112942 19.988565 290.647736
58 290.604584 5.007505 0.000477 8.205944 2.065919 19.281998 290.647736
[L_Leg01]
56 761.932007 -0.002384 -0.069261 27.910126 -12.165440 -14.341876 761.932068
57 761.932007 -0.002384 -0.069261 27.382729 -9.375870 -16.802479 761.932068
58 761.932007 -0.002384 -0.069261 27.403263 -7.023911 -19.943846 761.932068
[L_Leg02]
56 1441.140503 -0.000954 -0.000715 1.938099 -0.135896 -120.154366 1441.140503
57 1441.140503 -0.000954 -0.000715 3.454572 0.173200 -121.526100 1441.140503
58 1441.140503 -0.000954 -0.000715 4.058115 0.463179 -118.538246 1441.140503
[L_Leg03]
56 1686.963989 -0.000715 -0.000954 -0.029890 0.014827 118.553452 1686.963989
57 1686.963989 -0.000715 -0.000954 -0.057661 0.029897 126.225098 1686.963989
58 1686.963989 -0.000715 -0.000954 -0.071904 0.041000 129.927383 1686.963989
[L_Foot]
56 3041.570068 -30.715107 11.297464 0.867224 13.245013 51.162613 3041.746094
57 3041.570068 -30.715107 11.297464 1.738252 13.111685 49.922039 3041.746094
58 3041.570068 -30.715107 11.297464 1.934336 13.176572 47.667072 3041.746094
[L_Toe1_01]
56 -188.216690 -224.732346 -21.137953 94.067039 -6.256277 -176.060425 293.899567
57 -188.216690 -224.732346 -21.137953 93.962830 -6.463652 -174.707596 293.899567
58 -188.216690 -224.732346 -21.137953 93.818504 -6.710462 -173.039764 293.899567
[L_Toe2_01]
56 200.746536 -219.926590 148.838394 -91.669014 -26.384335 -48.729275 332.896027
57 200.746536 -219.926590 148.838394 -91.114853 -26.370831 -50.062408 332.896027
58 200.746536 -219.926590 148.838394 -90.450081 -26.338062 -51.661373 332.896027
[L_Toe3_01]
56 188.832520 -219.859131 -191.078659 -99.455925 15.360857 -63.740597 347.140900
57 188.832520 -219.859131 -191.078659 -99.585854 14.844795 -65.091629 347.140900
58 188.832520 -219.859131 -191.078659 -99.719894 14.225204 -66.683586 347.140900
[planeAlignerLeft]
56 0.812531 -811.448792 -0.314951 0.000000 -90.000000 -90.001900 811.449280
57 0.812531 -811.448792 -0.314951 0.000000 -90.000000 -90.001900 811.449280
58 0.812531 -811.448792 -0.314951 0.000000 -90.000000 -90.001900 811.449280
[L_Toe1_02]
56 413.761139 0.000477 0.000000 0.001385 -25.850529 0.001385 413.761139
57 413.761139 0.000477 0.000000 0.001385 -25.873730 0.001385 413.761139
58 413.761139 0.000477 0.000000 0.001385 -25.896925 0.001385 413.761139
[L_Toe1_03]
56 464.317322 0.000358 -0.000089 0.004360 58.766510 0.004360 464.317322
57 464.317322 0.000358 -0.000089 0.004137 57.042637 0.004137 464.317322
58 464.317322 0.000358 -0.000089 0.003886 54.847473 0.003886 464.317322
[L_Toe2_02]
56 342.235809 -0.000477 0.000238 0.001185 -73.805710 0.001185 342.235809
57 342.235809 -0.000477 0.000238 0.001186 -73.337845 0.001186 342.235809
58 342.235809 -0.000477 0.000238 0.001187 -72.869926 0.001187 342.235809
[L_Toe2_03]
56 420.210846 -0.000715 0.000000 -0.082981 89.188431 -0.079484 420.210846
57 420.210846 -0.000715 0.000000 -0.034467 87.986755 -0.030970 420.210846
58 420.210846 -0.000715 0.000000 0.037601 86.422752 0.037601 420.210846
[L_Toe3_02]
56 329.270111 0.000954 0.000000 0.001177 -81.488350 0.001177 329.270111
57 329.270111 0.000954 0.000000 0.001177 -81.152359 0.001177 329.270111
58 329.270111 0.000954 0.000000 0.001177 -80.816391 0.001177 329.270111
[L_Toe3_03]
56 439.137451 -0.001907 0.000954 -179.997543 74.336449 -179.994019 439.137451
57 439.137451 -0.001907 0.000954 -179.997131 75.714371 -179.993607 439.137451
58 439.137451 -0.001907 0.000954 -179.996490 77.459877 -179.992981 439.137451
[planeLockWeightLeft]
56 -0.000954 0.000238 -0.000305 -0.011826 -0.004376 0.005620 0.001029
57 -0.000954 0.000238 -0.000305 -0.011826 -0.004376 0.005620 0.001029
58 -0.000954 0.000238 -0.000305 -0.011826 -0.004376 0.005620 0.001029
[R_Leg01]
56 761.455627 -0.001907 -0.000358 120.352455 -4.607091 44.664078 761.455688
57 761.455627 -0.001907 -0.000358 120.975449 -8.090190 39.425304 761.455688
58 761.455627 -0.001907 -0.000358 121.288353 -9.735304 37.541698 761.455688
[R_Leg02]
56 1441.140625 0.000000 -0.000238 -0.788956 -0.017781 -106.494461 1441.140625
57 1441.140625 0.000000 -0.000238 -1.223042 -0.145841 -116.422516 1441.140625
58 1441.140625 0.000000 -0.000238 -1.385776 -0.220518 -120.193939 1441.140625
[R_Leg03]
56 1686.963989 0.000954 0.001431 0.061914 -0.031767 126.983597 1686.963989
57 1686.963989 0.000954 0.001431 0.074051 -0.038458 130.445435 1686.963989
58 1686.963989 0.000954 0.001431 0.080145 -0.041786 131.744003 1686.963989
[R_Foot]
56 3041.560059 -30.531288 -11.204481 -2.537243 -24.830273 52.401390 3041.734131
57 3041.560059 -30.531288 -11.204481 -0.880514 -24.720890 54.833012 3041.734131
58 3041.560059 -30.531288 -11.204481 -0.551285 -24.668089 55.713017 3041.734131
[planeAlignerRight]
56 -0.635147 -812.270569 -0.364304 0.000000 -89.960434 -90.005180 812.270874
57 -0.635147 -812.270569 -0.364304 0.000000 -89.960434 -90.005180 812.270874
58 -0.635147 -812.270569 -0.364304 0.000000 -89.960434 -90.005180 812.270874
[R_Toe1_01]
56 -188.383347 -224.864899 21.052242 76.954437 -0.106003 -174.119949 294.101532
57 -188.383347 -224.864899 21.052242 76.856400 -0.458023 -174.251419 294.101532
58 -188.383347 -224.864899 21.052242 76.820480 -0.464367 -173.786758 294.101532
[R_Toe2_01]
56 200.637817 -220.002121 -148.787384 -90.096985 35.236965 -54.970528 332.857574
57 200.637817 -220.002121 -148.787384 -90.903664 33.877701 -57.102661 332.857574
58 200.637817 -220.002121 -148.787384 -91.285667 33.231808 -58.155491 332.857574
[R_Toe3_01]
56 188.606735 -220.092957 191.126343 -73.230621 -10.886687 -70.220932 347.192566
57 188.606735 -220.092957 191.126343 -73.173424 -9.478072 -71.820518 347.192566
58 188.606735 -220.092957 191.126343 -73.196526 -8.808503 -72.750435 347.192566
[planeLockWeightRight]
56 -0.000477 0.000000 0.000000 -0.011823 -0.004379 -0.000027 0.000477
57 -0.000477 0.000000 0.000000 -0.011823 -0.004379 -0.000027 0.000477
58 -0.000477 0.000000 0.000000 -0.011823 -0.004379 -0.000027 0.000477
[R_Toe1_02]
56 413.762085 0.000477 -0.000119 0.001388 -25.515759 0.001388 413.762085
57 413.762085 0.000477 -0.000119 0.001393 -24.831654 0.001393 413.762085
58 413.762085 0.000477 -0.000119 0.001395 -24.532934 0.001395 413.762085
[R_Toe1_03]
56 464.317810 0.000000 0.001088 0.004985 62.768101 0.004985 464.317810
57 464.317810 0.000000 0.001088 0.006287 68.482704 0.006287 464.317810
58 464.317810 0.000000 0.001088 0.006883 70.365967 0.006883 464.317810
[R_Toe2_02]
56 342.234741 -0.000954 0.000238 0.001186 -73.391983 0.001186 342.234741
57 342.234741 -0.000954 0.000238 0.001191 -70.162560 0.001191 342.234741
58 342.234741 -0.000954 0.000238 0.001195 -68.174126 0.001195 342.234741
[R_Toe2_03]
56 420.210846 0.000715 -0.000268 -0.036008 88.255379 -0.039505 420.210846
57 420.210846 0.000715 -0.000268 0.013370 79.928894 0.013370 420.210846
58 420.210846 0.000715 -0.000268 0.009345 75.570610 0.009345 420.210846
[R_Toe3_02]
56 329.270355 -0.000477 -0.000954 0.001178 -79.634300 0.001178 329.270355
57 329.270355 -0.000477 -0.000954 0.001181 -77.082253 0.001181 329.270355
58 329.270355 -0.000477 -0.000954 0.001183 -75.478699 0.001183 329.270355
[R_Toe3_03]
56 439.137939 0.000238 0.001431 -179.993729 81.786514 -179.990219 439.137939
57 439.137939 0.000238 0.001431 0.000000 89.884651 0.003498 439.137939
58 439.137939 0.000238 0.001431 -0.017261 85.753014 -0.013762 439.137939
[Rear_Leg02]
56 1162.777710 -0.029802 0.005960 0.781754 -2.879189 -126.693138 1162.777710
57 1162.777710 -0.029802 0.005960 0.809193 -2.870835 -127.257790 1162.777710
58 1162.777710 -0.029802 0.005960 0.836546 -2.862211 -127.822388 1162.777710
[Rear_Leg03]
56 607.192505 -0.013351 -0.073195 0.010609 -0.004858 65.556808 607.192505
57 607.192505 -0.013351 -0.073195 0.010601 -0.004876 65.754951 607.192505
58 607.192505 -0.013351 -0.073195 0.010592 -0.004894 65.953102 607.192505
[Rear_Leg04]
56 995.874512 -0.020504 -0.011921 -0.043340 -0.018538 60.746590 995.874573
57 995.874512 -0.020504 -0.011921 -0.043406 -0.018382 61.159775 995.874573
58 995.874512 -0.020504 -0.011921 -0.043472 -0.018225 61.572933 995.874573
[Rear_Foot]
56 3096.176270 -0.067472 -0.041425 -153.944046 84.277344 37.928043 3096.176270
57 3096.176270 -0.067472 -0.041425 -147.552170 85.365150 45.459541 3096.176270
58 3096.176270 -0.067472 -0.041425 -145.496017 85.620331 47.690567 3096.176270
[planeAlignerCenter]
56 0.350077 0.966311 -838.790894 0.000009 0.000003 -179.999985 838.791565
57 0.350077 0.966311 -838.790894 0.000009 0.000003 -179.999985 838.791565
58 0.350077 0.966311 -838.790894 0.000009 0.000003 -179.999985 838.791565
[Rear_Toe1_01]
56 0.653352 83.966492 -371.173737 0.289249 41.911510 90.409378 380.553192
57 0.653352 83.966492 -371.173737 0.289081 41.911880 90.409912 380.553192
58 0.653352 83.966492 -371.173737 0.288917 41.912258 90.410454 380.553192
[Rear_Toe2_01]
56 178.200760 -294.826019 -362.060547 -7.198390 34.404949 -66.271690 499.765686
57 178.200760 -294.826019 -362.060547 -7.198086 34.405140 -66.271629 499.765686
58 178.200760 -294.826019 -362.060547 -7.197784 34.405327 -66.271568 499.765686
[Rear_Toe3_01]
56 -153.359680 -308.780914 -362.060852 3.289871 33.514683 -112.541588 499.952881
57 -153.359680 -308.780914 -362.060852 3.289804 33.515160 -112.541504 499.952881
58 -153.359680 -308.780914 -362.060852 3.289737 33.515625 -112.541412 499.952881
[planeLockWeightCenter]
56 -0.000062 0.000238 0.000000 -0.011814 -0.004373 -0.000015 0.000246
57 -0.000062 0.000238 0.000000 -0.011814 -0.004373 -0.000015 0.000246
58 -0.000062 0.000238 0.000000 -0.011814 -0.004373 -0.000015 0.000246
[Rear_Toe1_02]
56 379.707825 0.194073 0.000477 -0.000242 -31.679146 0.006934 379.707855
57 379.707825 0.194073 0.000477 -0.000242 -31.678801 0.006934 379.707855
58 379.707825 0.194073 0.000477 -0.000242 -31.678463 0.006934 379.707855
[Rear_Toe1_03]
56 500.129700 0.165701 0.000119 -0.000103 51.910183 0.007296 500.129761
57 500.129700 0.165701 0.000119 -0.000103 51.909081 0.007296 500.129761
58 500.129700 0.165701 0.000119 -0.000103 51.907982 0.007296 500.129761
[Rear_Toe2_02]
56 340.494507 0.000238 -0.000954 0.001192 -69.857346 0.001192 340.494507
57 340.494507 0.000238 -0.000954 0.001192 -69.856949 0.001192 340.494507
58 340.494507 0.000238 -0.000954 0.001192 -69.856522 0.001192 340.494507
[Rear_Toe2_03]
56 433.103577 0.000000 0.000238 0.006696 69.810326 0.006696 433.103546
57 433.103577 0.000000 0.000238 0.006696 69.810326 0.006696 433.103546
58 433.103577 0.000000 0.000238 0.006696 69.810326 0.006696 433.103546
[Rear_Toe3_02]
56 340.494141 -0.000358 -0.000477 0.008289 -67.277458 -0.009461 340.494171
57 340.494141 -0.000358 -0.000477 0.008289 -67.277084 -0.009461 340.494171
58 340.494141 -0.000358 -0.000477 0.008289 -67.276695 -0.009461 340.494171
[Rear_Toe3_03]
56 433.103577 0.001431 -0.000238 -0.000972 65.958984 -0.004547 433.103546
57 433.103577 0.001431 -0.000238 -0.000972 65.958961 -0.004547 433.103546
58 433.103577 0.001431 -0.000238 -0.000972 65.958984 -0.004547 433.103546
[Back_Bone]
56 1312.175781 -701.934692 0.000954 0.310750 -0.018985 -86.006752 1488.125488
57 1312.175781 -701.934692 0.000954 2.166369 -0.000270 -85.605545 1488.125488
58 1312.175781 -701.934692 0.000954 2.074900 0.038501 -86.715050 1488.125488
[Head]
56 1406.159424 809.709290 0.001431 -0.000972 -1.475623 7.892004 1622.625488
57 1406.159424 809.709290 0.001431 0.000625 -1.475623 7.768030 1622.625488
58 1406.159424 809.709290 0.001431 -0.027033 -1.474159 8.383199 1622.625488
[Motor_Bone]
56 1158.364380 -417.834747 0.000477 -0.095385 0.076104 -105.915703 1231.419434
57 1158.364380 -417.834747 0.000477 -0.095385 0.076104 -105.915703 1231.419434
58 1158.364380 -417.834747 0.000477 -0.095385 0.076104 -105.915726 1231.419434
[Ping_Mechanism]
56 1224.533325 -436.665466 -14.414112 0.000103 -0.000053 82.120995 1300.140869
57 1232.595093 -440.876312 -14.339068 0.000103 -0.000053 82.120995 1309.147949
58 1235.867310 -441.858459 -14.519265 0.000103 -0.000053 82.120995 1312.561401
[BN_LookIK]
56 193.241119 1380.371704 -0.002861 0.000000 89.965736 -31.038179 1393.832153
57 193.241119 1380.371704 -0.002861 0.000000 89.965736 -31.038179 1393.832153
58 193.241119 1380.371704 -0.002861 0.000000 89.965736 -31.038179 1393.832153
[bottomMouth]
56 -435.092926 615.759399 -0.000954 -0.000022 0.000016 73.527184 753.966492
57 -435.092926 615.759399 -0.000954 -0.000022 0.000016 73.527184 753.966492
58 -435.092926 615.759399 -0.000954 -0.000022 0.000016 73.527184 753.966492
[L_Mouth01]
56 554.440979 7.658243 838.222046 150.204178 23.759130 109.605339 1005.027161
57 554.440979 7.658243 838.222046 150.204178 23.759130 109.605339 1005.027161
58 554.440979 7.658243 838.222046 150.204178 23.759130 109.605339 1005.027161
[L_mouthFront]
56 551.629089 934.514771 339.150421 0.000081 2.804060 79.119301 1136.941284
57 551.629089 934.514771 339.150421 0.000081 2.804060 79.119301 1136.941284
58 551.629089 934.514771 339.150421 0.000081 2.804060 79.119301 1136.941284
[mouthGun]
56 55.332661 1627.420898 0.000000 0.000023 0.000009 -11.038128 1628.361328
57 55.332661 1627.420898 0.000000 0.000023 0.000009 -11.038128 1628.361328
58 55.332661 1627.420898 0.000000 0.000023 0.000009 -11.038128 1628.361328
[R_Mouth01]
56 554.442383 7.659197 -838.223938 29.795891 -23.759109 109.605331 1005.029541
57 554.442383 7.659197 -838.223938 29.795891 -23.759109 109.605331 1005.029541
58 554.442383 7.659197 -838.223938 29.795891 -23.759109 109.605331 1005.029541
[R_mouthFront]
56 551.629089 934.514282 -339.151367 0.000029 -2.803930 79.119133 1136.941162
57 551.629089 934.514282 -339.151367 0.000029 -2.803930 79.119133 1136.941162
58 551.629089 934.514282 -339.151367 0.000029 -2.803930 79.119133 1136.941162
[TopMouth]
56 461.269867 -56.106091 -0.008583 -0.000059 -0.000268 92.025169 464.669525
57 461.269867 -56.106091 -0.008583 -0.000059 -0.000268 92.025169 464.669525
58 461.269867 -56.106091 -0.008583 -0.000059 -0.000268 92.025169 464.669525
[weapon_bone]
56 -987.239868 1448.372803 0.001431 0.000000 89.965736 -31.038221 1752.833740
57 -987.239868 1448.372803 0.001431 0.000000 89.965736 -31.038221 1752.833740
58 -987.239868 1448.372803 0.001431 0.000000 89.965736 -31.038221 1752.833740
